<svg xmlns="http://www.w3.org/2000/svg" viewBox="0 0 563.97 138.68"><defs><style>.cls-1,.cls-2{fill:#000000;}.cls-2{opacity:0.97;}</style></defs><g id="Layer_2" data-name="Layer 2"><g id="untitled_Image" data-name="untitled Image"><path class="cls-1" d="M323.35,123.16c-4.77.33-9.22.3-14,.3,1.5-4.81,4.55-8.58,6-13.27a20.62,20.62,0,0,0-2.1-.2c-4.37,0-8.75.18-13.12.13a5.12,5.12,0,0,0-4.19,1.94c-3,3.36-6.14,6.59-9.13,10a5.15,5.15,0,0,1-4.21,1.95c-3.6-.08-7.2,0-10.91,0-.22-1.21.81-1.73,1.44-2.38Q284,110.24,295,99l43.16-44.34L340,52.75a3.09,3.09,0,0,1,2.29-1.08c4.37,0,8.74,0,13.12,0,.67,1.25-.23,2.18-.66,3.12Q347.4,71,340,87.18l-14.87,32.36C324.56,120.66,324,121.78,323.35,123.16Zm11.28-51.95c-2.39,1.52-18.22,18.07-26.86,28.05a12.22,12.22,0,0,0-.91,1.71c4.79-.22,9.09,0,13.63-.54q7-14,14-28.1A3.4,3.4,0,0,0,334.63,71.21Z"/><path class="cls-1" d="M375.64,90a16,16,0,0,1-.62,1.85q-7.18,15-14.41,30.05a19.91,19.91,0,0,1-6.26,0,28.46,28.46,0,0,1,2.25-5.33c.72-1.6,1.52-3.15,2.26-4.74s1.71-3.24,1.72-5.23c-.66.7-1.35,1.38-2,2.12-2.42,2.87-4.87,5.72-7.2,8.66a3.74,3.74,0,0,1-4.44,1.53,8.88,8.88,0,0,1-.23-2c.36-3.6.8-7.2,1.22-10.85-.86-.22-1,.44-1.23.92-1.79,3.72-3.56,7.44-5.35,11.16-.6,1.23-1.23,2.44-1.89,3.74a18,18,0,0,1-6,.05,3.62,3.62,0,0,1,.07-1.19c4.89-10.27,9.81-20.54,14.76-30.9,1.09-.08,2.07-.21,3-.22s2,.09,3.13.15c.64,3-.26,5.77-.29,8.58s-.39,5.45-.6,8.13c1.17.38,1.53-.44,2-1q5.61-6.3,11.19-12.66c.66-.75,1.29-1.54,2-2.22a3,3,0,0,1,1.56-.92C372.05,89.53,373.79,89.24,375.64,90Z"/><path class="cls-1" d="M364.9,53.09c1.22-.06,2.21-.14,3.2-.14q7.32,0,14.64,0a21.19,21.19,0,0,1,3,.18,1.4,1.4,0,0,1,1.16,1.94c-1.51,3.29-3,6.6-4.73,9.78a6.55,6.55,0,0,1-2.6,2,29.56,29.56,0,0,1-3.41,1.41l1.75,1.43c1.28,1.08,1.49,1.67.77,3.26-1.46,3.18-3,6.32-4.52,9.48A4.81,4.81,0,0,1,370,85.23c-.62.06-1.25,0-1.88,0-5.25,0-10.51,0-15.76,0-.72,0-1.44-.1-2.24-.16a4.14,4.14,0,0,1,.14-1.24Q357.55,68.48,364.9,53.09Zm6.84,19.33c-2.65-2.31-3.6-2.49-8.13-1.58-.52,1-1.09,2.13-1.64,3.24s-1.11,2.23-1.6,3.36A8.49,8.49,0,0,0,359.13,81a32.82,32.82,0,0,0,8.4,0c.54-1,1.1-1.94,1.58-2.94C370,76.17,370.89,74.26,371.74,72.42Zm-1.53-15.28A53.21,53.21,0,0,0,366,66.26a11.18,11.18,0,0,0,4.61.17c2.59-.5,5.07-1.3,6-4.29.32-1.06,1-2,1.39-3a11.58,11.58,0,0,0,.43-1.9A41.19,41.19,0,0,0,370.21,57.14Z"/><path class="cls-1" d="M396.63,53c5.11,0,10.23-.06,15.35,0a9.91,9.91,0,0,1,3.6.88,3,3,0,0,1,1.84,3.68,15.63,15.63,0,0,1-1.19,3.13c-2.68,5.65-5.52,11.22-8,16.94-2.19,5-6.15,7.2-11.18,7.5s-10.24.07-15.6.07a8.89,8.89,0,0,1,.35-1.89q7-14.73,14.08-29.43A6.55,6.55,0,0,1,396.63,53Zm-6.25,28,4.38.1a6.45,6.45,0,0,0,6.69-4.31c2.25-5.13,4.79-10.14,7.2-15.2.32-.67.66-1.34.92-2a1.52,1.52,0,0,0-1.24-2.23,22.37,22.37,0,0,0-6.51-.21C400,59.78,391.76,76.91,390.38,81Z"/><path class="cls-1" d="M542.29,85.12c1.86-5,4.44-9.12,6.24-13.93a35.94,35.94,0,0,0-9.2-.18c-2.3,4.7-4.58,9.39-6.89,14.12h-6.53a4,4,0,0,1,.13-1.2c4.87-10.27,9.76-20.52,14.67-30.84h6.57c-.14,2.5-1.62,4.3-2.48,6.33s-1.9,4-3,6.33a10.06,10.06,0,0,0,1.92.52c2.36,0,4.72,0,7.16,0,2.54-4.33,4.22-8.92,6.65-13.21h6.39a3.33,3.33,0,0,1,0,1.2c-4.86,10.26-9.74,20.51-14.65,30.84Z"/><path class="cls-1" d="M413.44,84a14.14,14.14,0,0,1,.68-2.29Q420.63,68,427.21,54.32a9.54,9.54,0,0,1,.86-1.24,24.61,24.61,0,0,1,6.51.12,49.5,49.5,0,0,1-3.08,7c-1,2.28-2.15,4.51-3.23,6.76s-2.18,4.5-3.24,6.76-2.08,4.49-3.24,7c3.25.77,6.15.48,9.28.2Q437.73,67,444.38,53.19a24,24,0,0,1,6.67-.09,13.9,13.9,0,0,1-.59,2.14C446.27,64,442,72.8,437.88,81.63A5.8,5.8,0,0,1,432,85.3c-5.12-.06-10.25,0-15.37,0C415.48,85.27,414.31,85.36,413.44,84Z"/><path class="cls-1" d="M395,121.86a4.48,4.48,0,0,1,.11-1.28C400,110.32,404.87,100.06,409.7,90a170.38,170.38,0,0,1,19.37-.34,11.52,11.52,0,0,1,1.89.55,7.61,7.61,0,0,1-.27,2.26c-1.84,4-3.77,7.91-5.65,11.86a4.68,4.68,0,0,1-4.1,2.82c-1,.09-2,.16-3.23.25a16.38,16.38,0,0,0-.37,2.47c0,3,.11,6,.17,9,0,.87,0,1.74,0,2.67-2.15,1-4.25.42-6.51.46a12.65,12.65,0,0,1-.46-2.14c-.1-3.62-.12-7.25-.21-10.88a6.23,6.23,0,0,1,1.62-4.81l5.95-.21a35.15,35.15,0,0,0,4.83-10c-1.27-.56-2.64-.24-3.94-.3s-2.48,0-3.88,0c-2.57,4.7-4.66,9.51-7,14.21s-4.44,9.23-6.75,14c-1.12.06-2.22.16-3.32.16S396,121.93,395,121.86Z"/><path class="cls-1" d="M292.38,37.82c-.45,1.25-.77,2.33-1.22,3.35C287.11,50.31,283,59.44,279,68.59q-7,15.76-13.92,31.57-5.67,12.87-11.37,25.73a14.11,14.11,0,0,1-1.48,2.59,2.21,2.21,0,0,1-2.35.82c-.68-.12-1.23-.58-1.14-1.26a13.75,13.75,0,0,1,.86-3.23c1.15-2.77,2.42-5.49,3.63-8.23q12.51-28.31,25-56.62Q282.62,50,287,40.08a11.13,11.13,0,0,1,1.32-2.26,2.49,2.49,0,0,1,2.64-1C291.5,36.92,291.89,37.44,292.38,37.82Z"/><path class="cls-1" d="M239.46,128.89c-1.3,0-2.06-.8-1.86-1.5a18.08,18.08,0,0,1,.92-2.45Q250.25,98.76,262,72.59q7.13-15.93,14.2-31.86a20.86,20.86,0,0,1,1.72-3.32,3.68,3.68,0,0,1,1.74-1.28,1.4,1.4,0,0,1,1.94,1.78,22,22,0,0,1-1.06,2.8Q271.87,60,263.17,79.36q-10.2,22.77-20.34,45.55a19.63,19.63,0,0,1-1.39,2.65A3,3,0,0,1,239.46,128.89Z"/><path class="cls-1" d="M517.63,53.11h7.21a21.28,21.28,0,0,1-.14,2.66Q522,69.59,519.26,83.39a13.92,13.92,0,0,1-.55,1.59,16.44,16.44,0,0,1-6.63,0c.33-1.86.63-3.56,1-5.44-2.81-.73-5.53-.17-8.43-.39l-4.46,6h-6.34a8.37,8.37,0,0,1,.73-1.72C502.2,73.36,509.86,63.3,517.63,53.11Zm-3.57,21.71c1.69-4.53,2.9-10.07,2.72-12.59-3,3.7-5.55,7.55-8.22,11.27-.19.26-.14.68-.23,1.18A19.6,19.6,0,0,0,514.06,74.82Z"/><path class="cls-1" d="M455.94,89.75c.77-.06,1.63-.2,2.49-.2q8.24,0,16.47.1a5.18,5.18,0,0,1,1.33.34c.84,1.07.42,2,0,2.89L472,101.67c-.81,1.69-1.69,3.35-2.42,5.07a5.37,5.37,0,0,1-5.61,3.48c-3.12-.07-6.24,0-9.36,0-.5,0-1,.06-1.76.1-2.35,3.53-3.65,7.75-6,11.59h-6.13a7.24,7.24,0,0,1,.34-1.75q7-14.72,14.05-29.39A8,8,0,0,1,455.94,89.75Zm4.79,4.06c-2,3.36-3.47,6.93-5.14,10.39a7.45,7.45,0,0,0-.33,1.77,33,33,0,0,0,7.53-.09c2.81-4.6,5-9.54,5.39-12.07Z"/><path class="cls-1" d="M509.62,101c1.81-3.66,3.62-7.33,5.46-11.08a12.16,12.16,0,0,1,6.31,0,10.13,10.13,0,0,1-.44,1.56q-7.26,15.18-14.56,30.39a20.09,20.09,0,0,1-6.8-.16,12.34,12.34,0,0,0-3.69,0c-2,.1-4,.35-6,.36a1.87,1.87,0,0,1-1.85-2.57,15.28,15.28,0,0,1,1-2.42c1.87-4,3.91-7.82,5.61-11.84a6.27,6.27,0,0,1,5.74-4c1.49-.14,3-.16,4.49-.19S507.88,101,509.62,101Zm-2.4,4.2c-1-.07-2-.16-3-.19a4,4,0,0,0-4.08,2.64c-1.28,2.84-2.67,5.63-4,8.45a9.12,9.12,0,0,0-.37,1.48c2.05,1.14,3.91.55,5.92,0,1.77-3.72,3.54-7.42,5.29-11.14A5,5,0,0,0,507.22,105.19Z"/><path class="cls-1" d="M388.63,94c-1.24,2.59-2.43,5-3.59,7.53a11.05,11.05,0,0,0-.45,1.57c3.11.62,6.11,0,9.14.44.22,1.53-.69,2.58-1.42,3.86-3.29.66-6.69-.08-10.26.48-1.05,2.15-2.16,4.37-3.23,6.61-.42.87-.77,1.78-1.27,3,3.86.59,7.47,0,11.08.42.18,1.72-.67,2.91-1.64,4.1h-18.2a10.49,10.49,0,0,1,.52-1.89q6.94-14.55,13.93-29.08c.16-.33.38-.64.57-.95,3-.64,15.23-.65,18.44,0-.51,1.16-1,2.27-1.54,3.52C396.81,94.09,392.93,93.54,388.63,94Z"/><path class="cls-1" d="M464.86,80.88l-1.76,4c-2.89.55-13.23.66-18.23.21a4.49,4.49,0,0,1,.2-1.35c4.82-10.16,9.66-20.3,14.56-30.57H466c.7.93,0,1.64-.38,2.37-3.44,7.22-6.9,14.43-10.32,21.65-.52,1.09-1.36,2.11-1.13,3.73Z"/><path class="cls-1" d="M485.38,52.94h5.8c.8,1.28-.05,2.09-.43,2.91C487.38,63,484,70,480.58,77.14c-.51,1.09-1.37,2.1-1.11,3.73h10c.39,1.8-.64,2.83-1.18,4-2.74.54-12.85.67-18.18.22a8.32,8.32,0,0,1,.38-1.72q7-14.71,14.06-29.4A9.31,9.31,0,0,1,485.38,52.94Z"/><path class="cls-1" d="M480.48,105.19c-3.08,5.55-5.35,11.36-8.34,16.75H466.4c-.09-.37-.27-.66-.19-.83q4.55-9.84,9.12-19.64a11,11,0,0,1,6-.22,13.3,13.3,0,0,0,4.4.08,54.05,54.05,0,0,1,6-.2,1.48,1.48,0,0,1,1.35,2.14c-.94,2.16-2,4.28-3,6.33a26.24,26.24,0,0,1-6.33.22c.54-1.78,1-3.14,1.41-4.63Z"/><path class="cls-1" d="M518.17,117.1c-.07,1.92-1.06,3.33-2,4.85h-5.74c-.21-2,1.07-3.23,1.77-4.79A18.5,18.5,0,0,1,518.17,117.1Z"/><path class="cls-2" d="M39,116.94c4.75.72,9.52,1.4,14.25,2.18A56.07,56.07,0,0,1,62,120.8c1.7.58,3.4,1.24,3.49,3.42s-1.39,3.43-3.24,4.17c-3.37,1.38-6.79,2.62-10.18,3.93-.63.25-1.22.56-1.86.86.17,1.55,1.62,1.18,2.35,1.84s1.18,1.14,1,2.06a2.12,2.12,0,0,1-1.71,1.53c-1.82.45-5.88-1.18-6.87-2.76s-.52-3.52,1.53-4.76A58,58,0,0,1,56.13,127c1.62-.6,3.31-1,4.86-2.43a35.69,35.69,0,0,0-12-2.83c-4.18-.38-8.28-1.15-12.39-1.87a9.4,9.4,0,0,1-2.69-.86c-2.14-1.15-2.18-3.53-.06-4.8a7.51,7.51,0,0,1,2.28-.73,208.49,208.49,0,0,1,30.77-4.22c6.58-.37,13.17-.53,19.83-1.23-8.37-1.39-16.72-2.91-25.1-4.14-13.19-1.93-26.46-3.34-39.56-5.82C16.51,97,10.91,96,5.78,93.41a16.1,16.1,0,0,1-3.11-1.86c-3.37-2.79-3.52-5.76-.62-9.06s6.48-5.22,10.23-7.12c2.85-1.45,5.78-2.72,8.72-4.09-.86-1.4-2-1.23-3.06-1.35a27.07,27.07,0,0,1-7.66-2.49C4,64.75,4,58.06,6.48,53.78c1.91-3.31,4.92-5.28,8.39-6.65,5.6-2.21,11.54-2.59,17.43-3.24,2.54-.28,5.13.06,7.66-.51a3.76,3.76,0,0,1,2.74.46c1.62.93,1.68,2.5.06,3.47s-3.42.52-5.15.46c-6.9-.25-13.71.17-20.32,2.36A14.93,14.93,0,0,0,11.18,54c-3.87,4-3,8.83,2.19,11.05a25.42,25.42,0,0,0,11,2.14c10.3-.43,18.84-5.06,26.52-11.59a9.08,9.08,0,0,0,2.29-3.76,94.74,94.74,0,0,1,15.52-26,22.45,22.45,0,0,1,4.65-4.48c1.27-.81,2.7-1.51,4.12-.41,1.24,1,1.06,2.37.75,3.73A41.84,41.84,0,0,1,69.9,41.57,133.29,133.29,0,0,1,58.31,54c-1.33,1.3-2.93,2.49-2.53,4.74,1.15.93,2.33.4,3.47.08,6.24-1.72,12.53-3.24,18.9-4.37,2.2-.39,3.12-1.73,3.86-3.62,4.81-12.1,11.47-23.19,18.78-33.9a29.8,29.8,0,0,1,2.81-3.43c.76-.81,1.74-1.41,2.88-.74,1.3.74,1.26,1.95.9,3.19-.07.26-.17.51-.26.77-4.27,11.85-9.32,23.29-17.66,33A9.38,9.38,0,0,0,88.65,51c1,1.3,2.24,1,3.37.81,9.14-1.34,8.86-1.47,12.8-10,3.7-8.1,6.84-16.45,12-23.84a27.13,27.13,0,0,1,5.14-5.66c2.19-1.78,4.62-2.08,6.38-.91,2.13,1.42,2.21,3.58,1.8,5.79A43.57,43.57,0,0,1,123,33.75c-2.87,4.24-5.81,8.44-8.71,12.66a1.74,1.74,0,0,0-.36,1.77c2.55.53,4.42-.49,5.82-2.75,3.53-5.74,7.11-11.46,10.62-17.21A182.58,182.58,0,0,1,147.1,4.93,16.06,16.06,0,0,1,152.9.61c3.82-1.62,6.12.06,5.78,4.17-.3,3.73-2.08,6.94-3.92,10.09a200.9,200.9,0,0,1-21,30.14,4.35,4.35,0,0,0-.49,1,1.28,1.28,0,0,0,1.53,1l.09,0c10.35-1.43,20.74-.76,31.11-.62a305.32,305.32,0,0,1,39,2.81c6.14.88,12.29,1.53,18.37,2.76a14.37,14.37,0,0,1,5.31,1.88c2.71,1.81,2.62,4.61-.34,6a39.66,39.66,0,0,1-6.89,2.34c-13.49,3.31-27.27,5.12-40.92,7.61q-14.11,2.56-28.42,3.8a234,234,0,0,1-31.1,1,20.53,20.53,0,0,1-5.89-1.36c-2.88-1-4-3.32-4.58-5.93-1.48-.53-2.3.32-3.19.85a11.78,11.78,0,0,1-4.55,1.62c-3,.37-4.58-.88-5-3.87-.13-1,.23-2.17-.51-3.42-2.32.81-4.64,1.77-7,2.42-6.14,1.62-7.8,1-11-4.25-1.4,0-2,1.15-2.94,1.89-5.59,4.66-12.15,5.57-19,4.79a6.31,6.31,0,0,1-4.76-2.78c-1.45-2.24-3.13-2.1-5.2-1.08s-4.18,1.87-6.25,2.84a48.76,48.76,0,0,1-11.48,3.78c-9.32,1.84-17.47,6.29-24.73,12.29-3.45,2.85-3.1,5.18.68,7.68a33.8,33.8,0,0,0,10,4.13c13.32,3.57,27,5.33,40.56,7.28q17.19,2.47,34.35,5.18c3.33.52,6.74.25,10,1.17,1,.28,2.36.22,2.47,1.62.11,1.62-1.3,1.88-2.43,2.18a14.6,14.6,0,0,1-5.23.17,122.07,122.07,0,0,0-23.41,0c-5.75.51-11.58.06-17.34,1-5.29.86-10.53,1.91-15.72,3.08C38.92,116.16,39,116.55,39,116.94ZM226.51,56.6c-4.95-2-9.48-2.6-13.94-3.51-19.72-4-39.68-5.18-59.75-5.94-6.48-.24-12.86,1.13-19.34.77a4.05,4.05,0,0,0-3,1c-4.86,4.44-10,8.67-14.37,13.6-2.92,3.24-1.48,7.18,2.73,8.15a18.79,18.79,0,0,0,3.58.56,268.85,268.85,0,0,0,43.94-1.76c16.55-2.17,33-5.19,49.27-8.8a32.86,32.86,0,0,0,10.87-4.1ZM155,3.89c-3.2.81-5,2.81-6.73,4.86C139,20,131.08,32.22,123.54,44.67c-.47.81-1.17,1.52-.62,2.8a8.11,8.11,0,0,0,7-2.84A157.52,157.52,0,0,0,153.76,9.72,9.31,9.31,0,0,0,155,3.89Zm-48.3,45.18c1.78-.14,2.62-1.62,3.58-2.85,1.83-2.33,3.62-4.69,5.28-7.15,3.69-5.47,7.75-10.72,9.83-17.13a11.55,11.55,0,0,0,.34-7.5c-3.75,1.41-5.67,4.26-7.29,7.14a253.21,253.21,0,0,0-11.85,24.35C106.24,46.89,105.71,47.91,106.72,49.07Zm10,.91c-2.6-.85-4.63-.53-6.41,1.35a53.14,53.14,0,0,1-5.45,5.37c-2.36,1.86-3,4.29-3.24,7-.22,1.9.34,2.58,2.19,2,.76-.24,1.49-.6,2.24-.9C112.8,62.23,114.35,56,116.73,50Zm-16.1,1.62c-1.15.13-2.06.18-3,.32-3.18.49-6.38.81-9.52,1.53-3.44.75-4.65,2.87-4,6.22.41,2,2.12,2.54,5.71,1.76a31.2,31.2,0,0,0,6-2.33c3.22-1.42,4.43-3.9,4.74-7.51Zm-23.09,4c-2.08.43-4.19.81-6.26,1.29q-6.48,1.59-12.91,3.28c-1,.27-2.33.63-2.22,2s1.49,1.39,2.51,1.62a11.6,11.6,0,0,0,2.42.29c7,.31,12.25-3,16.46-8.45ZM59.63,47.07c6.12-5.25,11.19-11.28,13.28-19.34A51.1,51.1,0,0,0,59.63,47.05Zm29.15-2.49c5.17-5.52,8.1-12.34,10.93-19.23A95.29,95.29,0,0,0,88.77,44.56Zm36.16,4.76c-4-.67-5.87,1.16-6.14,6.13a44.54,44.54,0,0,0,6.13-6.15Z"/><path class="cls-1" d="M541,107.69q0,.93-1.23.93H528.49c-.81,0-1.22-.31-1.22-.93V93.37c0-.62.41-.93,1.22-.93h11.26q1.23,0,1.23.93Zm-1.46-.12V93.5h-10.8v14.07Zm-1.85-2.51h-2.23l-1.91-3.94.16-1.19h1.45V97.35h-2v7.71h-2.2V96h5.12c.83,0,1.25.33,1.25,1v3.29c0,.63-.51,1-1.52,1Z"/></g></g></svg>